<?xml version="1.0" encoding="UTF-8"?>
<svg width="171px" height="64px" viewBox="0 0 171 64" version="1.1" xmlns="http://www.w3.org/2000/svg" xmlns:xlink="http://www.w3.org/1999/xlink">
    <!-- Generator: Sketch 58 (84663) - https://sketch.com -->
    <title>TypingBattle-GitHub</title>
    <desc>Created with Sketch.</desc>
    <defs>
        <linearGradient x1="50%" y1="3.061617e-15%" x2="50%" y2="100%" id="linearGradient-1">
            <stop stop-color="#FF4060" offset="0%"></stop>
            <stop stop-color="#FF6680" stop-opacity="0" offset="100%"></stop>
        </linearGradient>
        <path d="M13.704,57.944 C13.704,58.3120018 13.6360007,58.691998 13.5,59.084 C13.3639993,59.476002 13.1520014,59.8279984 12.864,60.14 C12.5759986,60.4520016 12.2160022,60.707999 11.784,60.908 C11.3519978,61.108001 10.840003,61.208 10.248,61.208 L6.096,61.208 C5.50399704,61.208 4.99200216,61.108001 4.56,60.908 C4.12799784,60.707999 3.76800144,60.4520016 3.48,60.14 C3.19199856,59.8279984 2.98000068,59.476002 2.844,59.084 C2.70799932,58.691998 2.64,58.3120018 2.64,57.944 L2.64,56.936 C2.64,56.5679982 2.70799932,56.188002 2.844,55.796 C2.98000068,55.403998 3.19199856,55.0520016 3.48,54.74 C3.76800144,54.4279984 4.12799784,54.172 4.56,53.972 C4.99200216,53.771999 5.50399704,53.672 6.096,53.672 L10.248,53.672 C10.840003,53.672 11.3519978,53.771999 11.784,53.972 C12.2160022,54.172 12.5759986,54.4279984 12.864,54.74 C13.1520014,55.0520016 13.3639993,55.403998 13.5,55.796 C13.6360007,56.188002 13.704,56.5679982 13.704,56.936 L13.704,57.944 Z M15.936,47.624 L13.656,47.624 L13.656,52.808 L11.28,52.808 L11.28,39.968 L13.656,39.968 L13.656,45.56 L15.936,45.56 L15.936,47.624 Z M9.576,42.896 L9.576,45.056 L8.928,48.728 L6.696,48.728 L7.2,45.032 L7.2,42.872 C7.2,42.6959991 7.11200088,42.608 6.936,42.608 L1.2,42.608 L1.2,40.592 L7.392,40.592 C7.61600112,40.592 7.7879994,40.6319996 7.908,40.712 C8.0280006,40.7920004 8.15199936,40.8959994 8.28,41.024 L9.24,41.984 C9.41600088,42.1600009 9.51599988,42.3119994 9.54,42.44 C9.56400012,42.5680006 9.576,42.7199991 9.576,42.896 Z M3.768,52.328 L0.216,52.328 L0.216,50.312 L2.856,50.312 L2.856,46.04 L5.232,46.04 L5.232,50.312 L6.93333246,50.2746667 C7.21244309,50.2675556 7.48933196,50.26 7.764,50.252 L10.32,50.168 L10.32,50.168 L10.32,51.968 L6.336,52.256 L3.768,52.328 Z M11.328,57.2 C11.328,57.0399992 11.3040002,56.8680009 11.256,56.684 C11.2079998,56.4999991 11.1200006,56.3360007 10.992,56.192 C10.8639994,56.0479993 10.6920011,55.9280005 10.476,55.832 C10.2599989,55.7359995 9.98400168,55.688 9.648,55.688 L6.696,55.688 C6.35999832,55.688 6.08400108,55.7359995 5.868,55.832 C5.65199892,55.9280005 5.48000064,56.0479993 5.352,56.192 C5.22399936,56.3360007 5.13600024,56.4999991 5.088,56.684 C5.03999976,56.8680009 5.016,57.0399992 5.016,57.2 L5.016,57.68 C5.016,57.8560009 5.03999976,58.0319991 5.088,58.208 C5.13600024,58.3840009 5.22399936,58.5439993 5.352,58.688 C5.48000064,58.8320007 5.65199892,58.9519995 5.868,59.048 C6.08400108,59.1440005 6.35999832,59.192 6.696,59.192 L9.648,59.192 C9.98400168,59.192 10.2599989,59.1440005 10.476,59.048 C10.6920011,58.9519995 10.8639994,58.8320007 10.992,58.688 C11.1200006,58.5439993 11.2079998,58.3840009 11.256,58.208 C11.3040002,58.0319991 11.328,57.8560009 11.328,57.68 L11.328,57.2 Z M29.736,55.496 L27.36,55.496 L27.36,39.968 L29.736,39.968 L29.736,55.496 Z M20.976,60.824 C20.5599979,60.6959994 20.1600019,60.4920014 19.776,60.212 C19.3919981,59.9319986 19.0560014,59.6160018 18.768,59.264 L18.768,54.272 L21.144,54.272 L21.144,58.352 C21.144,58.5280009 21.1719997,58.6479997 21.228,58.712 C21.2840003,58.7760003 21.3839993,58.808 21.528,58.808 L30.24,58.808 L30.24,60.824 L20.976,60.824 Z M21.816,40.592 L22.008,44.24 L25.392,51.92 L25.248,52.184 L23.16,52.184 L20.832,46.496 L18.312,52.424 L16.176,52.424 L15.984,52.16 L19.536,44.312 L19.728,40.592 L21.816,40.592 Z M46.368,58.28 L31.248,58.28 L31.248,56.264 L36.144,56.264 L36.144,48.872 L38.52,48.872 L38.52,56.264 L46.368,56.264 L46.368,58.28 Z M44.496,43.4 L44.496,49.184 L43.44,53.336 L41.184,53.336 L42.12,49.16 L42.12,43.376 C42.12,43.1999991 42.0320009,43.112 41.856,43.112 L33.288,43.112 L33.288,41.096 L42.312,41.096 C42.5360011,41.096 42.7079994,41.1359996 42.828,41.216 C42.9480006,41.2960004 43.0719994,41.3999994 43.2,41.528 L44.16,42.488 C44.3360009,42.6640009 44.4359999,42.8159994 44.46,42.944 C44.4840001,43.0720006 44.496,43.2239991 44.496,43.4 Z M60.288,57.704 C60.288,58.6160046 59.9720032,59.3879968 59.34,60.02 C58.7079968,60.6520032 57.792006,60.968 56.592,60.968 L52.44,60.968 C51.239994,60.968 50.3240032,60.6520032 49.692,60.02 C49.0599968,59.3879968 48.744,58.6160046 48.744,57.704 L48.744,56.432 C48.744,55.5199954 49.0599968,54.7480032 49.692,54.116 C50.3240032,53.4839968 51.239994,53.168 52.44,53.168 L56.592,53.168 C57.792006,53.168 58.7079968,53.4839968 59.34,54.116 C59.9720032,54.7480032 60.288,55.5199954 60.288,56.432 L60.288,57.704 Z M57.912,56.696 C57.912,56.1679974 57.7800013,55.7840012 57.516,55.544 C57.2519987,55.3039988 56.7840034,55.184 56.112,55.184 L52.92,55.184 C52.2479966,55.184 51.7800013,55.3039988 51.516,55.544 C51.2519987,55.7840012 51.12,56.1679974 51.12,56.696 L51.12,57.44 C51.12,57.9680026 51.2519987,58.3519988 51.516,58.592 C51.7800013,58.8320012 52.2479966,58.952 52.92,58.952 L56.112,58.952 C56.7840034,58.952 57.2519987,58.8320012 57.516,58.592 C57.7800013,58.3519988 57.912,57.9680026 57.912,57.44 L57.912,56.696 Z M62.088,49.424 L62.088,51.44 L46.968,51.44 L46.968,49.424 L62.088,49.424 Z M51.144,47.768 C50.7279979,47.6399994 50.3280019,47.4360014 49.944,47.156 C49.5599981,46.8759986 49.2240014,46.5600018 48.936,46.208 L48.936,40.472 L59.952,40.472 L59.952,42.488 L51.312,42.488 L51.312,45.296 C51.312,45.472 51.3399997,45.5919997 51.396,45.656 C51.4520003,45.7200003 51.5519993,45.752 51.696,45.752 L60.12,45.752 L60.12,47.768 L51.144,47.768 Z M78.336,47.864 L75.912,47.864 L75.912,53 L73.536,53 L73.536,39.968 L75.912,39.968 L75.912,45.728 L78.336,45.728 L78.336,47.864 Z M64.608,54.2 L75.264,54.2 L75.792,54.8 L75.792,60.968 L73.416,60.968 L73.416,56.24 L64.608,56.24 L64.608,54.2 Z M68.568,52.28 L66.624,52.28 C65.6639952,52.28 64.9120027,52.0320025 64.368,51.536 C63.8239973,51.0399975 63.552,50.3040049 63.552,49.328 L63.552,47.096 C63.552,46.1199951 63.8239973,45.3840025 64.368,44.888 C64.9120027,44.3919975 65.6639952,44.144 66.624,44.144 L68.568,44.144 C69.5280048,44.144 70.2799973,44.3919975 70.824,44.888 C71.3680027,45.3840025 71.64,46.1199951 71.64,47.096 L71.64,49.328 C71.64,50.3040049 71.3680027,51.0399975 70.824,51.536 C70.2799973,52.0320025 69.5280048,52.28 68.568,52.28 Z M68.328,50.36 C68.7440021,50.36 69.0199993,50.2520011 69.156,50.036 C69.2920007,49.8199989 69.36,49.5760014 69.36,49.304 L69.36,47.12 C69.36,46.8479986 69.2920007,46.6040011 69.156,46.388 C69.0199993,46.1719989 68.7440021,46.064 68.328,46.064 L66.864,46.064 C66.4479979,46.064 66.1720007,46.1719989 66.036,46.388 C65.8999993,46.6040011 65.832,46.8479986 65.832,47.12 L65.832,49.304 C65.832,49.5760014 65.8999993,49.8199989 66.036,50.036 C66.1720007,50.2520011 66.4479979,50.36 66.864,50.36 L68.328,50.36 Z M66.312,41.288 L66.504,38.84 L68.592,38.84 L68.784,41.288 L72.264,41.288 L72.264,43.232 L62.76,43.232 L62.76,41.288 L66.312,41.288 Z M93.888,58.28 L78.768,58.28 L78.768,56.264 L81.96,56.264 L81.96,49.352 L84.24,49.352 L84.24,56.264 L85.896,56.264 L85.896,49.352 L88.176,49.352 L88.176,56.264 L93.888,56.264 L93.888,58.28 Z M92.136,43.424 L92.136,49.208 L91.272,53.36 L89.064,53.36 L89.76,49.184 L89.76,43.4 C89.76,43.2239991 89.6720009,43.136 89.496,43.136 L80.568,43.136 L80.568,41.12 L89.952,41.12 C90.1760011,41.12 90.3479994,41.1599996 90.468,41.24 C90.5880006,41.3200004 90.7119994,41.4239994 90.84,41.552 L91.8,42.512 C91.9760009,42.6880009 92.0759999,42.8399994 92.1,42.968 C92.1240001,43.0960006 92.136,43.2479991 92.136,43.424 Z" id="path-2"></path>
        <filter x="-3.2%" y="-13.4%" width="106.4%" height="126.8%" filterUnits="objectBoundingBox" id="filter-3">
            <feOffset dx="0" dy="0" in="SourceAlpha" result="shadowOffsetOuter1"></feOffset>
            <feGaussianBlur stdDeviation="1" in="shadowOffsetOuter1" result="shadowBlurOuter1"></feGaussianBlur>
            <feColorMatrix values="0 0 0 0 0   0 0 0 0 0   0 0 0 0 0  0 0 0 0.25 0" type="matrix" in="shadowBlurOuter1"></feColorMatrix>
        </filter>
    </defs>
    <g id="TypingBattle-GitHub" stroke="none" stroke-width="1" fill="none" fill-rule="evenodd">
        <g id="Group" fill-rule="nonzero">
            <path d="M8.32,25.464 L8.32,37.688 C8.32,38.1573357 8.40533248,38.4559994 8.576,38.584 C8.74666752,38.7120006 9.02399808,38.776 9.408,38.776 L25.344,38.648 L25.344,43.64 L7.872,44.6 C6.76266112,44.258665 5.69600512,43.7146704 4.672,42.968 C3.64799488,42.2213296 2.75200384,41.3786714 1.984,40.44 L1.984,3.32 L22.464,3.32 L22.464,8.696 L8.32,8.696 L8.32,20.088 L21.824,20.088 L21.824,25.464 L8.32,25.464 Z M42.496,25.784 L35.2,25.784 L35.2,56.504 L28.864,56.504 L28.864,0.248 L35.2,0.248 L35.2,20.216 L42.496,20.216 L42.496,25.784 Z M72.768,0.248 L79.104,0.248 L79.104,20.984 L85.376,20.984 L85.376,26.68 L79.104,26.68 L79.104,56.504 L72.768,56.504 L72.768,0.248 Z M59.328,19.576 L69.184,43.96 L68.736,44.792 L63.104,44.792 L56.192,26.808 L49.28,44.792 L43.648,44.792 L43.136,44.024 L52.864,19.704 L52.864,8.696 L43.84,8.696 L43.84,3.32 L67.776,3.32 L67.776,8.696 L59.328,8.696 L59.328,19.576 Z M125.44,56.504 L119.104,56.504 L119.104,25.016 L114.816,25.016 L114.816,55.672 L108.672,55.672 L108.672,0.376 L114.816,0.376 L114.816,19 L119.104,19 L119.104,0.248 L125.44,0.248 L125.44,56.504 Z M105.28,42.68 C105.28,43.4480038 105.152001,43.9599987 104.896,44.216 C104.639999,44.4720013 104.213336,44.6 103.616,44.6 L91.904,44.6 C90.0266573,43.6186618 88.4053402,42.3600077 87.04,40.824 L87.04,3 L93.312,3 L93.312,18.232 L99.328,18.232 L99.328,3 L105.28,3 L105.28,42.68 Z M99.328,39.224 L99.328,23.48 L93.312,23.48 L93.312,38.008 C93.312,38.4773357 93.3973325,38.7973325 93.568,38.968 C93.7386675,39.1386675 94.0159981,39.224 94.4,39.224 L99.328,39.224 Z M139.904,22.008 C138.794661,21.5813312 137.834671,21.0906694 137.024,20.536 C136.213329,19.9813306 135.424004,19.2986707 134.656,18.488 L134.656,0.632 L164.032,0.632 L164.032,6.008 L140.992,6.008 L140.992,8.952 L163.648,8.952 L163.648,13.944 L140.992,13.944 L140.992,15.672 C140.992,16.1413357 141.066666,16.4613325 141.216,16.632 C141.365334,16.8026675 141.631998,16.888 142.016,16.888 L164.48,16.888 L164.48,22.008 L139.904,22.008 Z M164.416,35.704 L164.416,45.752 C164.416,46.6906714 163.946671,47.16 163.008,47.16 L141.056,47.16 L141.056,49.336 C141.056,49.8053357 141.130666,50.1253325 141.28,50.296 C141.429334,50.4666675 141.695998,50.552 142.08,50.552 L165.568,50.552 L165.568,55.608 L140.48,55.608 C139.370661,55.266665 138.304005,54.7226704 137.28,53.976 C136.255995,53.2293296 135.360004,52.3866714 134.592,51.448 L134.592,43.768 C134.592,43.3839981 134.719999,43.0426682 134.976,42.744 C135.232001,42.4453318 135.594664,42.296 136.064,42.296 L157.952,42.296 L157.952,39.16 L134.592,39.16 L134.592,34.104 L163.008,34.104 L164.416,35.704 Z M169.728,25.464 L169.728,30.52 L129.408,30.52 L129.408,25.464 L169.728,25.464 Z" id="타자배틀" fill="url(#linearGradient-1)"></path>
            <g id="광신고등학교">
                <use fill="black" fill-opacity="1" filter="url(#filter-3)" xlink:href="#path-2"></use>
                <use fill="#303840" xlink:href="#path-2"></use>
            </g>
        </g>
    </g>
</svg>